<svg width="110" height="110" viewBox="0 0 110 110" fill="none" xmlns="http://www.w3.org/2000/svg">
<rect x="8" y="9" width="93" height="93" rx="10" fill="white"/>
<path d="M70.9406 16.869L54.0716 33.9405L37.0001 17.0715" stroke="#E94134" stroke-width="4" stroke-linecap="round"/>
<path d="M37.0008 93.0714L53.8698 75.9999L70.9413 92.8689" stroke="#34A853" stroke-width="4" stroke-linecap="round"/>
<path d="M16.9706 38.0001L33.9411 54.9707L16.9706 71.9413" stroke="#4286F5" stroke-width="4" stroke-linecap="round"/>
<path d="M92.9708 37.0001L76.0003 53.9707L92.9708 70.9413" stroke="#F9BB04" stroke-width="4" stroke-linecap="round"/>
<path d="M60.06 66.6583C61.6822 67.8564 63.857 66.1726 63.1033 64.3021L55.3821 45.1376C54.7074 43.463 52.3346 43.4689 51.6682 45.1468L44.011 64.4287C43.263 66.3124 45.4689 67.9859 47.0814 66.7581L52.3451 62.7502C53.0523 62.2117 54.03 62.2046 54.7449 62.7326L60.06 66.6583Z" fill="black"/>
<path d="M60.06 66.6583C61.6822 67.8564 63.857 66.1726 63.1033 64.3021L55.3821 45.1376C54.7074 43.463 52.3346 43.4689 51.6682 45.1468L44.011 64.4287C43.263 66.3124 45.4689 67.9859 47.0814 66.7581L52.3451 62.7502C53.0523 62.2117 54.03 62.2046 54.7449 62.7326L60.06 66.6583Z" stroke="black"/>
</svg>
