<svg width="431" height="110" viewBox="0 0 431 110" fill="none" xmlns="http://www.w3.org/2000/svg">
<path d="M70.9406 16.869L54.0716 33.9405L37.0001 17.0715" stroke="#E94134" stroke-width="4" stroke-linecap="round"/>
<path d="M37.0008 93.0714L53.8698 75.9999L70.9413 92.8689" stroke="#34A853" stroke-width="4" stroke-linecap="round"/>
<path d="M16.9706 38.0001L33.9411 54.9707L16.9706 71.9413" stroke="#4286F5" stroke-width="4" stroke-linecap="round"/>
<path d="M92.9708 37.0001L76.0003 53.9707L92.9708 70.9413" stroke="#F9BB04" stroke-width="4" stroke-linecap="round"/>
<path d="M60.06 66.6583C61.6822 67.8564 63.857 66.1726 63.1033 64.3021L55.3821 45.1376C54.7074 43.463 52.3346 43.4689 51.6682 45.1468L44.011 64.4287C43.263 66.3124 45.4689 67.9859 47.0814 66.7581L52.3451 62.7502C53.0523 62.2117 54.03 62.2046 54.7449 62.7326L60.06 66.6583Z" fill="black"/>
<path d="M60.06 66.6583C61.6822 67.8564 63.857 66.1726 63.1033 64.3021L55.3821 45.1376C54.7074 43.463 52.3346 43.4689 51.6682 45.1468L44.011 64.4287C43.263 66.3124 45.4689 67.9859 47.0814 66.7581L52.3451 62.7502C53.0523 62.2117 54.03 62.2046 54.7449 62.7326L60.06 66.6583Z" stroke="black"/>
<path d="M123.188 79V29.5H129.375V51.1562H137.593L169.594 29.5H178.875L143.812 53.7344L179.906 79H170.625L137.625 56.3125H129.375V79H123.188ZM228.601 67.9785C228.601 70.75 228.182 72.9307 227.344 74.5205C226.527 76.1104 225.271 77.2705 223.573 78.001C221.876 78.7314 219.706 79.1934 217.063 79.3867C214.442 79.6016 211.316 79.709 207.686 79.709C203.539 79.709 200.016 79.4941 197.115 79.0645C194.236 78.6562 191.905 77.8076 190.122 76.5186C188.36 75.208 187.071 73.2529 186.255 70.6533C185.46 68.0537 185.062 64.584 185.062 60.2441C185.062 56.0332 185.449 52.6602 186.223 50.125C187.018 47.5898 188.296 45.6777 190.058 44.3887C191.819 43.0996 194.129 42.2402 196.986 41.8105C199.865 41.3809 203.378 41.166 207.524 41.166C212.272 41.166 216.204 41.499 219.319 42.165C222.435 42.8311 224.755 44.0986 226.28 45.9678C227.827 47.8369 228.601 50.5762 228.601 54.1855V62.1455H191.282C191.304 64.8955 191.497 67.0977 191.862 68.752C192.228 70.4062 192.958 71.6523 194.054 72.4902C195.149 73.3281 196.782 73.8867 198.952 74.166C201.144 74.4238 204.055 74.5527 207.686 74.5527C210.951 74.5527 213.583 74.4883 215.581 74.3594C217.601 74.2305 219.126 73.9512 220.157 73.5215C221.21 73.0703 221.919 72.4043 222.284 71.5234C222.649 70.6426 222.832 69.4609 222.832 67.9785H228.601ZM207.524 46.3223C204.022 46.3223 201.197 46.4512 199.049 46.709C196.922 46.9668 195.3 47.4717 194.183 48.2236C193.065 48.9541 192.303 50.0498 191.895 51.5107C191.508 52.9717 191.304 54.8945 191.282 57.2793H222.671V54.1855C222.671 52.6387 222.488 51.3604 222.123 50.3506C221.779 49.3193 221.092 48.5137 220.061 47.9336C219.029 47.332 217.504 46.9131 215.484 46.6768C213.486 46.4404 210.833 46.3223 207.524 46.3223ZM237.27 79V41.875H243.457V46.999C244.145 45.9033 244.832 44.9902 245.52 44.2598C246.229 43.5293 247.142 42.9492 248.259 42.5195C249.397 42.0898 250.934 41.7891 252.867 41.6172C254.801 41.4238 257.347 41.3271 260.505 41.3271V46.5156C256.251 46.5156 252.953 46.666 250.611 46.9668C248.291 47.2676 246.626 47.7832 245.616 48.5137C244.606 49.2227 243.994 50.2109 243.779 51.4785C243.564 52.7461 243.457 54.3574 243.457 56.3125V79H237.27ZM269.045 79V41.875H275.232V46.999C275.92 45.9033 276.607 44.9902 277.295 44.2598C278.004 43.5293 278.917 42.9492 280.034 42.5195C281.173 42.0898 282.709 41.7891 284.643 41.6172C286.576 41.4238 289.122 41.3271 292.28 41.3271V46.5156C288.026 46.5156 284.729 46.666 282.387 46.9668C280.066 47.2676 278.401 47.7832 277.392 48.5137C276.382 49.2227 275.77 50.2109 275.555 51.4785C275.34 52.7461 275.232 54.3574 275.232 56.3125V79H269.045ZM321.155 79.709C316.644 79.709 313.013 79.5586 310.263 79.2578C307.534 78.957 305.461 78.3984 304.043 77.582C302.646 76.7656 301.701 75.6055 301.207 74.1016C300.734 72.5977 300.498 70.6426 300.498 68.2363H306.428C306.428 69.5898 306.524 70.6855 306.718 71.5234C306.911 72.3398 307.459 72.9736 308.361 73.4248C309.264 73.8545 310.725 74.1553 312.744 74.3271C314.785 74.4775 317.643 74.5527 321.316 74.5527C325.205 74.5527 328.224 74.4775 330.372 74.3271C332.542 74.1553 334.1 73.8545 335.045 73.4248C335.99 72.9736 336.56 72.3291 336.753 71.4912C336.968 70.6533 337.075 69.5469 337.075 68.1719C337.075 66.4961 336.925 65.2393 336.624 64.4014C336.323 63.5635 335.614 63.0049 334.497 62.7256C333.38 62.4248 331.597 62.2637 329.147 62.2422L314.388 62.0811C310.585 62.0381 307.685 61.7158 305.687 61.1143C303.688 60.5127 302.324 59.46 301.594 57.9561C300.863 56.4307 300.498 54.2715 300.498 51.4785C300.498 48.8789 300.896 46.8701 301.69 45.4521C302.507 44.0342 303.774 43.0244 305.493 42.4229C307.212 41.8213 309.446 41.4668 312.196 41.3594C314.946 41.2305 318.266 41.166 322.154 41.166C326.73 41.166 330.361 41.3057 333.047 41.585C335.754 41.8643 337.773 42.3906 339.105 43.1641C340.459 43.9375 341.34 45.0654 341.748 46.5479C342.178 48.0088 342.393 49.9209 342.393 52.2842H336.463C336.463 50.8877 336.366 49.792 336.173 48.9971C335.979 48.1807 335.453 47.5898 334.594 47.2246C333.756 46.8379 332.381 46.5908 330.469 46.4834C328.578 46.376 325.914 46.3223 322.477 46.3223C318.566 46.3223 315.526 46.3652 313.356 46.4512C311.187 46.5371 309.618 46.7412 308.651 47.0635C307.685 47.3857 307.094 47.9014 306.879 48.6104C306.664 49.2979 306.557 50.2539 306.557 51.4785C306.557 52.7246 306.621 53.7129 306.75 54.4434C306.9 55.1523 307.276 55.6895 307.878 56.0547C308.479 56.4199 309.457 56.667 310.811 56.7959C312.186 56.9033 314.098 56.9678 316.547 56.9893L329.276 57.1182C333.101 57.1611 336.001 57.4834 337.978 58.085C339.976 58.665 341.329 59.75 342.038 61.3398C342.769 62.9082 343.134 65.1855 343.134 68.1719C343.134 70.8574 342.736 72.9736 341.941 74.5205C341.168 76.0674 339.922 77.2168 338.203 77.9688C336.484 78.6992 334.218 79.1719 331.403 79.3867C328.61 79.6016 325.194 79.709 321.155 79.709ZM373.104 79.709C368.958 79.709 365.435 79.4941 362.534 79.0645C359.634 78.6562 357.292 77.8076 355.509 76.5186C353.726 75.208 352.426 73.2529 351.609 70.6533C350.793 68.0537 350.385 64.584 350.385 60.2441C350.385 56.0332 350.793 52.6602 351.609 50.125C352.426 47.5898 353.726 45.6777 355.509 44.3887C357.292 43.0996 359.634 42.2402 362.534 41.8105C365.435 41.3809 368.958 41.166 373.104 41.166C377.272 41.166 380.796 41.3809 383.675 41.8105C386.575 42.2402 388.917 43.0996 390.7 44.3887C392.483 45.6777 393.783 47.5898 394.6 50.125C395.416 52.6602 395.824 56.0332 395.824 60.2441C395.824 64.584 395.416 68.0537 394.6 70.6533C393.783 73.2529 392.483 75.208 390.7 76.5186C388.917 77.8076 386.575 78.6562 383.675 79.0645C380.796 79.4941 377.272 79.709 373.104 79.709ZM389.637 60.2441C389.637 57.1719 389.476 54.7119 389.153 52.8643C388.853 51.0166 388.176 49.6309 387.123 48.707C386.07 47.7617 384.427 47.1279 382.192 46.8057C379.979 46.4834 376.95 46.3223 373.104 46.3223C369.28 46.3223 366.251 46.4834 364.017 46.8057C361.782 47.1279 360.139 47.7617 359.086 48.707C358.033 49.6309 357.346 51.0166 357.023 52.8643C356.723 54.7119 356.572 57.1719 356.572 60.2441C356.572 63.4238 356.723 65.9697 357.023 67.8818C357.346 69.7939 358.033 71.2334 359.086 72.2002C360.139 73.1455 361.782 73.7793 364.017 74.1016C366.251 74.4023 369.28 74.5527 373.104 74.5527C376.95 74.5527 379.979 74.4023 382.192 74.1016C384.427 73.7793 386.07 73.1455 387.123 72.2002C388.176 71.2334 388.853 69.7939 389.153 67.8818C389.476 65.9697 389.637 63.4238 389.637 60.2441ZM403.688 79V41.875H409.875V46.999C410.562 45.9033 411.25 44.9902 411.938 44.2598C412.646 43.5293 413.56 42.9492 414.677 42.5195C415.815 42.0898 417.352 41.7891 419.285 41.6172C421.219 41.4238 423.765 41.3271 426.923 41.3271V46.5156C422.669 46.5156 419.371 46.666 417.029 46.9668C414.709 47.2676 413.044 47.7832 412.034 48.5137C411.024 49.2227 410.412 50.2109 410.197 51.4785C409.982 52.7461 409.875 54.3574 409.875 56.3125V79H403.688Z" fill="black"/>
</svg>
